<?xml version="1.0" encoding="UTF-8"?>
<!DOCTYPE svg PUBLIC "-//W3C//DTD SVG 1.1//EN" "http://www.w3.org/Graphics/SVG/1.1/DTD/svg11.dtd">
<!-- Creator: CorelDRAW 2021.5 -->
<svg xmlns="http://www.w3.org/2000/svg" xml:space="preserve" width="11.5492in" height="2.19113in" version="1.1" shape-rendering="geometricPrecision" text-rendering="geometricPrecision" image-rendering="optimizeQuality" fill-rule="evenodd" clip-rule="evenodd"
viewBox="0 0 84.557 16.042"
 xmlns:xlink="http://www.w3.org/1999/xlink"
 xmlns:xodm="http://www.corel.com/coreldraw/odm/2003">
 <g id="Layer_x0020_1">
  <metadata id="CorelCorpID_0Corel-Layer"/>
  <g id="_2310407164544">
   <path fill="#2C4B69" d="M4.657 0l16.198 0c0.241,0 0.288,0.197 0.106,0.438l-2.622 3.458c-0.456,0.602 -1.322,1.094 -1.924,1.094l-16.11 0c-0.337,0 -0.404,-0.276 -0.148,-0.613l2.423 -3.196c0.493,-0.65 1.428,-1.182 2.078,-1.182z"/>
   <path fill="#4B9EAC" d="M14.063 10.735l-9.988 0c-0.111,0 -0.15,-0.091 -0.087,-0.202l1.699 -2.974c0.498,-0.871 1.617,-1.584 2.489,-1.584l9.594 0c0.111,0 0.15,0.091 0.087,0.202l-1.924 3.369c-0.374,0.654 -1.215,1.19 -1.869,1.19z"/>
   <path fill="#2C4B69" d="M4.121 11.62l4.641 0 0 2.839c0,0.871 -0.713,1.584 -1.584,1.584l-3.058 0 0 -4.422z"/>
   <polygon fill="#141A26" fill-rule="nonzero" points="25.2,14.761 25.2,4.072 21.426,4.072 21.426,2.637 30.442,2.637 30.442,4.072 26.668,4.072 26.668,14.761 "/>
   <path id="_1" fill="#141A26" fill-rule="nonzero" d="M33.135 14.966c-0.854,0 -1.591,-0.194 -2.211,-0.581 -0.62,-0.387 -1.099,-0.936 -1.434,-1.648 -0.336,-0.711 -0.504,-1.545 -0.504,-2.502 0,-0.956 0.168,-1.787 0.504,-2.493 0.336,-0.706 0.808,-1.255 1.417,-1.648 0.609,-0.393 1.329,-0.589 2.16,-0.589 0.785,0 1.48,0.185 2.083,0.555 0.603,0.37 1.073,0.908 1.409,1.614 0.336,0.706 0.504,1.565 0.504,2.578l0 0.427 -6.574 0c0.057,0.968 0.316,1.696 0.777,2.186 0.461,0.489 1.084,0.734 1.87,0.734 0.592,0 1.079,-0.139 1.46,-0.418 0.381,-0.279 0.646,-0.646 0.794,-1.101l1.537 0.12c-0.239,0.808 -0.692,1.471 -1.358,1.989 -0.666,0.518 -1.477,0.777 -2.433,0.777zm-2.647 -5.55l5.003 0c-0.068,-0.877 -0.322,-1.52 -0.76,-1.93 -0.438,-0.41 -0.993,-0.615 -1.665,-0.615 -0.694,0 -1.266,0.213 -1.716,0.64 -0.45,0.427 -0.737,1.062 -0.862,1.904z"/>
   <path id="_2" fill="#141A26" fill-rule="nonzero" d="M41.498 14.966c-0.842,0 -1.574,-0.194 -2.194,-0.581 -0.62,-0.387 -1.101,-0.936 -1.443,-1.648 -0.342,-0.711 -0.512,-1.545 -0.512,-2.502 0,-0.956 0.171,-1.787 0.512,-2.493 0.342,-0.706 0.822,-1.255 1.443,-1.648 0.62,-0.393 1.352,-0.589 2.194,-0.589 0.694,0 1.312,0.122 1.853,0.367 0.541,0.245 0.982,0.6 1.323,1.067 0.342,0.467 0.563,1.036 0.666,1.708l-1.503 0.102c-0.102,-0.603 -0.364,-1.067 -0.785,-1.392 -0.421,-0.324 -0.939,-0.487 -1.554,-0.487 -0.831,0 -1.48,0.299 -1.947,0.896 -0.467,0.598 -0.7,1.42 -0.7,2.467 0,1.047 0.233,1.87 0.7,2.467 0.467,0.598 1.116,0.896 1.947,0.896 0.615,0 1.133,-0.171 1.554,-0.512 0.421,-0.342 0.683,-0.854 0.785,-1.537l1.503 0.102c-0.102,0.672 -0.324,1.255 -0.666,1.75 -0.341,0.495 -0.783,0.879 -1.323,1.153 -0.541,0.273 -1.158,0.41 -1.853,0.41z"/>
   <path id="_3" fill="#141A26" fill-rule="nonzero" d="M46.07 14.761l0 -12.124 1.434 0 0 5.071 -0.171 -0.034c0.114,-0.501 0.307,-0.911 0.581,-1.229 0.273,-0.319 0.609,-0.555 1.007,-0.709 0.398,-0.154 0.837,-0.231 1.315,-0.231 0.649,0 1.198,0.145 1.648,0.435 0.45,0.29 0.791,0.694 1.025,1.212 0.233,0.518 0.35,1.113 0.35,1.784l0 5.823 -1.434 0 0 -5.413c0,-0.877 -0.157,-1.525 -0.47,-1.947 -0.313,-0.421 -0.788,-0.632 -1.426,-0.632 -0.729,0 -1.315,0.222 -1.759,0.666 -0.444,0.444 -0.666,1.087 -0.666,1.93l0 5.396 -1.434 0z"/>
   <path id="_4" fill="#141A26" fill-rule="nonzero" d="M54.979 14.761l0 -12.124 4.354 0c1.355,0 2.408,0.324 3.159,0.973 0.751,0.649 1.127,1.548 1.127,2.698 0,0.774 -0.171,1.443 -0.512,2.006 -0.342,0.563 -0.831,0.993 -1.468,1.289 -0.637,0.296 -1.406,0.444 -2.305,0.444l-2.886 0 0 4.713 -1.468 0zm1.468 -6.147l2.886 0c0.911,0 1.597,-0.194 2.058,-0.581 0.461,-0.387 0.692,-0.962 0.692,-1.725 0,-0.74 -0.231,-1.298 -0.692,-1.673 -0.461,-0.376 -1.147,-0.563 -2.058,-0.563l-2.886 0 0 4.542z"/>
   <path id="_5" fill="#141A26" fill-rule="nonzero" d="M66.603 14.761c-0.524,0 -0.951,-0.137 -1.281,-0.41 -0.33,-0.273 -0.495,-0.706 -0.495,-1.298l0 -10.416 1.434 0 0 10.296c0,0.182 0.048,0.322 0.145,0.418 0.097,0.097 0.236,0.145 0.418,0.145l0.785 0 0 1.264 -1.007 0z"/>
   <path id="_6" fill="#141A26" fill-rule="nonzero" d="M70.782 14.966c-0.933,0 -1.676,-0.216 -2.228,-0.649 -0.552,-0.433 -0.828,-1.036 -0.828,-1.81 0,-0.774 0.228,-1.383 0.683,-1.827 0.455,-0.444 1.178,-0.757 2.169,-0.939l3.21 -0.598c0,-0.763 -0.179,-1.332 -0.538,-1.708 -0.359,-0.376 -0.896,-0.563 -1.614,-0.563 -0.626,0 -1.121,0.139 -1.486,0.418 -0.364,0.279 -0.615,0.68 -0.751,1.204l-1.52 -0.12c0.171,-0.854 0.583,-1.545 1.238,-2.075 0.655,-0.529 1.494,-0.794 2.519,-0.794 1.161,0 2.049,0.327 2.664,0.982 0.615,0.655 0.922,1.557 0.922,2.706l0 3.74c0,0.205 0.037,0.35 0.111,0.435 0.074,0.085 0.196,0.128 0.367,0.128l0.359 0 0 1.264c-0.046,0.011 -0.12,0.02 -0.222,0.026 -0.102,0.006 -0.211,0.009 -0.324,0.009 -0.41,0 -0.743,-0.065 -0.999,-0.196 -0.256,-0.131 -0.441,-0.336 -0.555,-0.615 -0.114,-0.279 -0.171,-0.646 -0.171,-1.101l0.171 0.034c-0.08,0.387 -0.273,0.737 -0.581,1.05 -0.307,0.313 -0.689,0.558 -1.144,0.734 -0.455,0.176 -0.939,0.265 -1.451,0.265zm0.137 -1.264c0.603,0 1.118,-0.117 1.545,-0.35 0.427,-0.233 0.754,-0.552 0.982,-0.956 0.228,-0.404 0.341,-0.857 0.341,-1.357l0 -0.649 -2.937 0.546c-0.615,0.114 -1.039,0.287 -1.272,0.521 -0.233,0.233 -0.35,0.538 -0.35,0.914 0,0.421 0.151,0.748 0.452,0.982 0.302,0.233 0.714,0.35 1.238,0.35z"/>
   <path id="_7" fill="#141A26" fill-rule="nonzero" d="M76.634 14.761l0 -9.05 1.315 0 0.051 2.305 -0.171 -0.154c0.114,-0.535 0.313,-0.976 0.598,-1.323 0.285,-0.347 0.629,-0.606 1.033,-0.777 0.404,-0.171 0.84,-0.256 1.306,-0.256 0.694,0 1.266,0.154 1.716,0.461 0.45,0.307 0.785,0.72 1.007,1.238 0.222,0.518 0.333,1.096 0.333,1.733l0 5.823 -1.434 0 0 -5.413c0,-0.558 -0.065,-1.027 -0.196,-1.409 -0.131,-0.381 -0.339,-0.672 -0.623,-0.871 -0.285,-0.199 -0.655,-0.299 -1.11,-0.299 -0.694,0 -1.266,0.219 -1.716,0.657 -0.45,0.438 -0.674,1.079 -0.674,1.921l0 5.413 -1.434 0z"/>
  </g>
 </g>
</svg>
