<?xml version="1.0" encoding="UTF-8"?>
<!DOCTYPE svg PUBLIC "-//W3C//DTD SVG 1.1//EN" "http://www.w3.org/Graphics/SVG/1.1/DTD/svg11.dtd">
<!-- Creator: CorelDRAW 2021.5 -->
<svg xmlns="http://www.w3.org/2000/svg" xml:space="preserve" width="2.878in" height="2.19113in" version="1.1" shape-rendering="geometricPrecision" text-rendering="geometricPrecision" image-rendering="optimizeQuality" fill-rule="evenodd" clip-rule="evenodd"
viewBox="0 0 5.251 3.998"
 xmlns:xlink="http://www.w3.org/1999/xlink"
 xmlns:xodm="http://www.corel.com/coreldraw/odm/2003">
 <g id="Layer_x0020_1">
  <metadata id="CorelCorpID_0Corel-Layer"/>
  <path fill="#2C4B69" d="M1.16 0l4.036 0c0.06,0 0.072,0.049 0.026,0.109l-0.653 0.862c-0.114,0.15 -0.329,0.273 -0.479,0.273l-4.015 0c-0.084,0 -0.101,-0.069 -0.037,-0.153l0.604 -0.796c0.123,-0.162 0.356,-0.295 0.518,-0.295z"/>
  <path fill="#4B9EAC" d="M3.504 2.675l-2.489 0c-0.028,0 -0.037,-0.023 -0.022,-0.05l0.423 -0.741c0.124,-0.217 0.403,-0.395 0.62,-0.395l2.391 0c0.028,0 0.037,0.023 0.022,0.05l-0.479 0.839c-0.093,0.163 -0.303,0.296 -0.466,0.296z"/>
  <path fill="#2C4B69" d="M1.027 2.896l1.157 0 0 0.707c0,0.217 -0.178,0.395 -0.395,0.395l-0.762 0 0 -1.102z"/>
 </g>
</svg>
