<?xml version="1.0" encoding="UTF-8"?>
<!DOCTYPE svg PUBLIC "-//W3C//DTD SVG 1.1//EN" "http://www.w3.org/Graphics/SVG/1.1/DTD/svg11.dtd">
<!-- Creator: CorelDRAW 2021.5 -->
<svg xmlns="http://www.w3.org/2000/svg" xml:space="preserve" width="3.06938in" height="3.06938in" version="1.1" shape-rendering="geometricPrecision" text-rendering="geometricPrecision" image-rendering="optimizeQuality" fill-rule="evenodd" clip-rule="evenodd"
viewBox="0 0 5.99 5.99"
 xmlns:xlink="http://www.w3.org/1999/xlink"
 xmlns:xodm="http://www.corel.com/coreldraw/odm/2003">
 <defs>
    <linearGradient id="id0" gradientUnits="userSpaceOnUse" x1="-0.628" y1="6.717" x2="5.665" y2="-1.516">
     <stop offset="0" stop-opacity="1" stop-color="white"/>
     <stop offset="0.690196" stop-opacity="1" stop-color="#F3F2F1"/>
     <stop offset="1" stop-opacity="1" stop-color="#E7E5E3"/>
    </linearGradient>
    <linearGradient id="id1" gradientUnits="userSpaceOnUse" x1="-0.628" y1="6.717" x2="5.665" y2="-1.516">
     <stop offset="0" stop-opacity="1" stop-color="white"/>
     <stop offset="0.690196" stop-opacity="1" stop-color="#F3F2F1"/>
     <stop offset="1" stop-opacity="1" stop-color="#E7E5E3"/>
    </linearGradient>
    <linearGradient id="id2" gradientUnits="userSpaceOnUse" x1="-0.628" y1="6.717" x2="5.665" y2="-1.516">
     <stop offset="0" stop-opacity="1" stop-color="white"/>
     <stop offset="0.690196" stop-opacity="1" stop-color="#F3F2F1"/>
     <stop offset="1" stop-opacity="1" stop-color="#E7E5E3"/>
    </linearGradient>
 </defs>
 <g id="Layer_x0020_1">
  <metadata id="CorelCorpID_0Corel-Layer"/>
  <rect fill="#2C4B69" width="5.99" height="5.99" rx="0.425" ry="0.425"/>
  <g id="_2310317696160">
   <path fill="url(#id0)" d="M1.611 1.24l3.812 0c0.057,0 0.068,0.046 0.025,0.103l-0.617 0.814c-0.107,0.142 -0.311,0.258 -0.453,0.258l-3.792 0c-0.079,0 -0.095,-0.065 -0.035,-0.144l0.57 -0.752c0.116,-0.153 0.336,-0.278 0.489,-0.278z"/>
   <path fill="url(#id1)" d="M3.825 3.767l-2.351 0c-0.026,0 -0.035,-0.021 -0.02,-0.047l0.4 -0.7c0.117,-0.205 0.381,-0.373 0.586,-0.373l2.258 0c0.026,0 0.035,0.021 0.02,0.047l-0.453 0.793c-0.088,0.154 -0.286,0.28 -0.44,0.28z"/>
   <path fill="url(#id2)" d="M1.485 3.975l1.092 0 0 0.668c0,0.205 -0.168,0.373 -0.373,0.373l-0.72 0 0 -1.041z"/>
  </g>
 </g>
</svg>
