<?xml version="1.0" encoding="UTF-8"?>
<!DOCTYPE svg PUBLIC "-//W3C//DTD SVG 1.1//EN" "http://www.w3.org/Graphics/SVG/1.1/DTD/svg11.dtd">
<!-- Creator: CorelDRAW 2021.5 -->
<svg xmlns="http://www.w3.org/2000/svg" xml:space="preserve" width="8.62275in" height="1.68389in" version="1.1" shape-rendering="geometricPrecision" text-rendering="geometricPrecision" image-rendering="optimizeQuality" fill-rule="evenodd" clip-rule="evenodd"
viewBox="0 0 45.318 8.85"
 xmlns:xlink="http://www.w3.org/1999/xlink"
 xmlns:xodm="http://www.corel.com/coreldraw/odm/2003">
 <g id="Layer_x0020_1">
  <metadata id="CorelCorpID_0Corel-Layer"/>
  <polygon fill="#141A26" fill-rule="nonzero" points="2.709,8.703 2.709,1.03 -0,1.03 -0,0 6.472,0 6.472,1.03 3.763,1.03 3.763,8.703 "/>
  <path id="_1" fill="#141A26" fill-rule="nonzero" d="M8.406 8.85c-0.613,0 -1.142,-0.139 -1.587,-0.417 -0.445,-0.278 -0.789,-0.672 -1.03,-1.183 -0.241,-0.511 -0.362,-1.109 -0.362,-1.796 0,-0.686 0.121,-1.283 0.362,-1.79 0.241,-0.507 0.58,-0.901 1.017,-1.183 0.437,-0.282 0.954,-0.423 1.551,-0.423 0.564,0 1.062,0.133 1.495,0.398 0.433,0.266 0.77,0.652 1.011,1.158 0.241,0.507 0.362,1.124 0.362,1.851l0 0.306 -4.719 0c0.041,0.695 0.227,1.218 0.558,1.569 0.331,0.351 0.778,0.527 1.342,0.527 0.425,0 0.774,-0.1 1.048,-0.3 0.274,-0.2 0.464,-0.464 0.57,-0.791l1.103 0.086c-0.172,0.58 -0.496,1.056 -0.974,1.428 -0.478,0.372 -1.06,0.558 -1.747,0.558zm-1.9 -3.984l3.591 0c-0.049,-0.629 -0.231,-1.091 -0.545,-1.385 -0.315,-0.294 -0.713,-0.441 -1.195,-0.441 -0.498,0 -0.909,0.153 -1.232,0.46 -0.323,0.306 -0.529,0.762 -0.619,1.367z"/>
  <path id="_2" fill="#141A26" fill-rule="nonzero" d="M14.409 8.85c-0.605,0 -1.13,-0.139 -1.575,-0.417 -0.445,-0.278 -0.791,-0.672 -1.036,-1.183 -0.245,-0.511 -0.368,-1.109 -0.368,-1.796 0,-0.686 0.123,-1.283 0.368,-1.79 0.245,-0.507 0.59,-0.901 1.036,-1.183 0.445,-0.282 0.97,-0.423 1.575,-0.423 0.498,0 0.942,0.088 1.33,0.264 0.388,0.176 0.705,0.431 0.95,0.766 0.245,0.335 0.405,0.744 0.478,1.226l-1.079 0.074c-0.074,-0.433 -0.261,-0.766 -0.564,-0.999 -0.302,-0.233 -0.674,-0.349 -1.115,-0.349 -0.597,0 -1.062,0.215 -1.397,0.644 -0.335,0.429 -0.503,1.019 -0.503,1.771 0,0.752 0.168,1.342 0.503,1.771 0.335,0.429 0.801,0.644 1.397,0.644 0.441,0 0.813,-0.123 1.115,-0.368 0.302,-0.245 0.49,-0.613 0.564,-1.103l1.079 0.074c-0.074,0.482 -0.233,0.901 -0.478,1.256 -0.245,0.355 -0.562,0.631 -0.95,0.827 -0.388,0.196 -0.831,0.294 -1.33,0.294z"/>
  <path id="_3" fill="#141A26" fill-rule="nonzero" d="M17.691 8.703l0 -8.703 1.03 0 0 3.64 -0.123 -0.025c0.082,-0.36 0.221,-0.654 0.417,-0.883 0.196,-0.229 0.437,-0.398 0.723,-0.509 0.286,-0.11 0.601,-0.165 0.944,-0.165 0.466,0 0.86,0.104 1.183,0.313 0.323,0.208 0.568,0.498 0.735,0.87 0.168,0.372 0.251,0.799 0.251,1.281l0 4.18 -1.03 0 0 -3.886c0,-0.629 -0.112,-1.095 -0.337,-1.397 -0.225,-0.302 -0.566,-0.454 -1.024,-0.454 -0.523,0 -0.944,0.159 -1.263,0.478 -0.319,0.319 -0.478,0.78 -0.478,1.385l0 3.873 -1.03 0z"/>
  <path id="_4" fill="#141A26" fill-rule="nonzero" d="M24.086 8.703l0 -8.703 3.126 0c0.972,0 1.728,0.233 2.268,0.699 0.539,0.466 0.809,1.111 0.809,1.937 0,0.556 -0.123,1.036 -0.368,1.44 -0.245,0.405 -0.597,0.713 -1.054,0.925 -0.458,0.212 -1.009,0.319 -1.655,0.319l-2.072 0 0 3.383 -1.054 0zm1.054 -4.413l2.072 0c0.654,0 1.146,-0.139 1.477,-0.417 0.331,-0.278 0.496,-0.691 0.496,-1.238 0,-0.531 -0.165,-0.932 -0.496,-1.201 -0.331,-0.27 -0.823,-0.405 -1.477,-0.405l-2.072 0 0 3.261z"/>
  <path id="_5" fill="#141A26" fill-rule="nonzero" d="M32.43 8.703c-0.376,0 -0.682,-0.098 -0.919,-0.294 -0.237,-0.196 -0.355,-0.507 -0.355,-0.932l0 -7.477 1.03 0 0 7.391c0,0.131 0.035,0.231 0.104,0.3 0.069,0.069 0.17,0.104 0.3,0.104l0.564 0 0 0.907 -0.723 0z"/>
  <path id="_6" fill="#141A26" fill-rule="nonzero" d="M35.43 8.85c-0.67,0 -1.203,-0.155 -1.6,-0.466 -0.396,-0.311 -0.594,-0.744 -0.594,-1.299 0,-0.556 0.163,-0.993 0.49,-1.312 0.327,-0.319 0.846,-0.543 1.557,-0.674l2.304 -0.429c0,-0.548 -0.129,-0.956 -0.386,-1.226 -0.257,-0.27 -0.644,-0.405 -1.158,-0.405 -0.449,0 -0.805,0.1 -1.066,0.3 -0.262,0.2 -0.441,0.488 -0.539,0.864l-1.091 -0.086c0.123,-0.613 0.419,-1.109 0.889,-1.489 0.47,-0.38 1.073,-0.57 1.808,-0.57 0.834,0 1.471,0.235 1.912,0.705 0.441,0.47 0.662,1.117 0.662,1.943l0 2.684c0,0.147 0.027,0.251 0.08,0.313 0.053,0.061 0.141,0.092 0.264,0.092l0.257 0 0 0.907c-0.033,0.008 -0.086,0.014 -0.159,0.018 -0.074,0.004 -0.151,0.006 -0.233,0.006 -0.294,0 -0.533,-0.047 -0.717,-0.141 -0.184,-0.094 -0.317,-0.241 -0.398,-0.441 -0.082,-0.2 -0.123,-0.464 -0.123,-0.791l0.123 0.025c-0.057,0.278 -0.196,0.529 -0.417,0.754 -0.221,0.225 -0.494,0.4 -0.821,0.527 -0.327,0.127 -0.674,0.19 -1.042,0.19zm0.098 -0.907c0.433,0 0.803,-0.084 1.109,-0.251 0.306,-0.168 0.541,-0.396 0.705,-0.686 0.163,-0.29 0.245,-0.615 0.245,-0.974l0 -0.466 -2.108 0.392c-0.441,0.082 -0.746,0.206 -0.913,0.374 -0.168,0.168 -0.251,0.386 -0.251,0.656 0,0.302 0.108,0.537 0.325,0.705 0.217,0.168 0.513,0.251 0.889,0.251z"/>
  <path id="_7" fill="#141A26" fill-rule="nonzero" d="M39.631 8.703l0 -6.497 0.944 0 0.037 1.655 -0.123 -0.11c0.082,-0.384 0.225,-0.701 0.429,-0.95 0.204,-0.249 0.451,-0.435 0.742,-0.558 0.29,-0.123 0.603,-0.184 0.938,-0.184 0.498,0 0.909,0.11 1.232,0.331 0.323,0.221 0.564,0.517 0.723,0.889 0.159,0.372 0.239,0.787 0.239,1.244l0 4.18 -1.03 0 0 -3.886c0,-0.4 -0.047,-0.738 -0.141,-1.011 -0.094,-0.274 -0.243,-0.482 -0.447,-0.625 -0.204,-0.143 -0.47,-0.214 -0.797,-0.214 -0.498,0 -0.909,0.157 -1.232,0.472 -0.323,0.315 -0.484,0.774 -0.484,1.379l0 3.886 -1.03 0z"/>
 </g>
</svg>
