<?xml version="1.0" encoding="UTF-8"?>
<!DOCTYPE svg PUBLIC "-//W3C//DTD SVG 1.1//EN" "http://www.w3.org/Graphics/SVG/1.1/DTD/svg11.dtd">
<!-- Creator: CorelDRAW 2021.5 -->
<svg xmlns="http://www.w3.org/2000/svg" xml:space="preserve" width="12.0157in" height="3.06938in" version="1.1" shape-rendering="geometricPrecision" text-rendering="geometricPrecision" image-rendering="optimizeQuality" fill-rule="evenodd" clip-rule="evenodd"
viewBox="0 0 91.796 23.449"
 xmlns:xlink="http://www.w3.org/1999/xlink"
 xmlns:xodm="http://www.corel.com/coreldraw/odm/2003">
 <defs>
   <linearGradient id="id0" gradientUnits="userSpaceOnUse" x1="5.141" y1="21.426" x2="18.308" y2="2.023">
    <stop offset="0" stop-opacity="1" stop-color="#1D3145"/>
    <stop offset="1" stop-opacity="1" stop-color="#4473A1"/>
   </linearGradient>
 </defs>
 <g id="Layer_x0020_1">
  <metadata id="CorelCorpID_0Corel-Layer"/>
  <polygon fill="#141A26" fill-rule="nonzero" points="29.858,19.279 29.858,8.125 25.921,8.125 25.921,6.628 35.329,6.628 35.329,8.125 31.391,8.125 31.391,19.279 "/>
  <path id="_1" fill="#141A26" fill-rule="nonzero" d="M38.139 19.492c-0.891,0 -1.66,-0.202 -2.307,-0.606 -0.647,-0.404 -1.146,-0.977 -1.497,-1.719 -0.35,-0.742 -0.526,-1.613 -0.526,-2.61 0,-0.998 0.175,-1.865 0.526,-2.601 0.35,-0.736 0.843,-1.31 1.479,-1.719 0.636,-0.41 1.387,-0.615 2.254,-0.615 0.82,0 1.544,0.193 2.174,0.579 0.63,0.386 1.12,0.947 1.47,1.684 0.35,0.736 0.526,1.633 0.526,2.69l0 0.445 -6.86 0c0.059,1.01 0.33,1.77 0.811,2.281 0.481,0.511 1.131,0.766 1.951,0.766 0.618,0 1.125,-0.146 1.523,-0.437 0.398,-0.291 0.674,-0.674 0.829,-1.149l1.604 0.125c-0.249,0.843 -0.722,1.535 -1.417,2.076 -0.695,0.54 -1.541,0.811 -2.539,0.811zm-2.762 -5.791l5.221 0c-0.071,-0.915 -0.336,-1.586 -0.793,-2.013 -0.457,-0.428 -1.036,-0.641 -1.737,-0.641 -0.725,0 -1.321,0.223 -1.791,0.668 -0.469,0.445 -0.769,1.108 -0.9,1.987z"/>
  <path id="_2" fill="#141A26" fill-rule="nonzero" d="M46.865 19.492c-0.879,0 -1.642,-0.202 -2.29,-0.606 -0.647,-0.404 -1.149,-0.977 -1.506,-1.719 -0.356,-0.742 -0.535,-1.613 -0.535,-2.61 0,-0.998 0.178,-1.865 0.535,-2.601 0.356,-0.736 0.858,-1.31 1.506,-1.719 0.647,-0.41 1.411,-0.615 2.29,-0.615 0.725,0 1.369,0.128 1.933,0.383 0.564,0.255 1.025,0.627 1.381,1.114 0.356,0.487 0.588,1.081 0.695,1.782l-1.568 0.107c-0.107,-0.63 -0.38,-1.114 -0.82,-1.452 -0.439,-0.339 -0.98,-0.508 -1.621,-0.508 -0.867,0 -1.544,0.312 -2.031,0.935 -0.487,0.624 -0.731,1.482 -0.731,2.575 0,1.093 0.244,1.951 0.731,2.575 0.487,0.624 1.164,0.935 2.031,0.935 0.641,0 1.182,-0.178 1.621,-0.535 0.44,-0.356 0.713,-0.891 0.82,-1.604l1.568 0.107c-0.107,0.701 -0.339,1.31 -0.695,1.826 -0.356,0.517 -0.817,0.918 -1.381,1.203 -0.564,0.285 -1.209,0.428 -1.933,0.428z"/>
  <path id="_3" fill="#141A26" fill-rule="nonzero" d="M51.636 19.279l0 -12.651 1.497 0 0 5.292 -0.178 -0.036c0.119,-0.523 0.321,-0.95 0.606,-1.283 0.285,-0.333 0.635,-0.579 1.051,-0.739 0.416,-0.16 0.873,-0.241 1.372,-0.241 0.677,0 1.25,0.151 1.719,0.454 0.469,0.303 0.826,0.725 1.069,1.265 0.244,0.54 0.365,1.161 0.365,1.862l0 6.076 -1.497 0 0 -5.648c0,-0.915 -0.163,-1.592 -0.49,-2.031 -0.327,-0.439 -0.823,-0.659 -1.488,-0.659 -0.76,0 -1.372,0.232 -1.835,0.695 -0.463,0.463 -0.695,1.134 -0.695,2.013l0 5.63 -1.497 0z"/>
  <path id="_4" fill="#141A26" fill-rule="nonzero" d="M60.932 19.279l0 -12.651 4.544 0c1.414,0 2.512,0.339 3.296,1.016 0.784,0.677 1.176,1.615 1.176,2.815 0,0.808 -0.178,1.506 -0.535,2.094 -0.356,0.588 -0.867,1.036 -1.532,1.345 -0.665,0.309 -1.467,0.463 -2.405,0.463l-3.011 0 0 4.918 -1.532 0zm1.532 -6.414l3.011 0c0.95,0 1.666,-0.202 2.147,-0.606 0.481,-0.404 0.722,-1.004 0.722,-1.8 0,-0.772 -0.241,-1.354 -0.722,-1.746 -0.481,-0.392 -1.197,-0.588 -2.147,-0.588l-3.011 0 0 4.739z"/>
  <path id="_5" fill="#141A26" fill-rule="nonzero" d="M73.061 19.279c-0.546,0 -0.992,-0.143 -1.336,-0.428 -0.344,-0.285 -0.517,-0.736 -0.517,-1.354l0 -10.869 1.497 0 0 10.744c0,0.19 0.051,0.336 0.151,0.437 0.101,0.101 0.246,0.151 0.437,0.151l0.82 0 0 1.319 -1.051 0z"/>
  <path id="_6" fill="#141A26" fill-rule="nonzero" d="M77.422 19.492c-0.974,0 -1.749,-0.226 -2.325,-0.677 -0.576,-0.451 -0.864,-1.081 -0.864,-1.889 0,-0.808 0.238,-1.443 0.713,-1.906 0.475,-0.463 1.229,-0.79 2.263,-0.98l3.35 -0.624c0,-0.796 -0.187,-1.39 -0.561,-1.782 -0.374,-0.392 -0.935,-0.588 -1.684,-0.588 -0.653,0 -1.17,0.146 -1.55,0.437 -0.38,0.291 -0.641,0.71 -0.784,1.256l-1.586 -0.125c0.178,-0.891 0.609,-1.612 1.292,-2.165 0.683,-0.552 1.559,-0.829 2.628,-0.829 1.212,0 2.138,0.342 2.78,1.025 0.641,0.683 0.962,1.624 0.962,2.824l0 3.902c0,0.214 0.039,0.365 0.116,0.454 0.077,0.089 0.205,0.134 0.383,0.134l0.374 0 0 1.319c-0.048,0.012 -0.125,0.021 -0.232,0.027 -0.107,0.006 -0.22,0.009 -0.339,0.009 -0.428,0 -0.775,-0.068 -1.042,-0.205 -0.267,-0.137 -0.46,-0.35 -0.579,-0.641 -0.119,-0.291 -0.178,-0.674 -0.178,-1.149l0.178 0.036c-0.083,0.404 -0.285,0.769 -0.606,1.096 -0.321,0.327 -0.719,0.582 -1.194,0.766 -0.475,0.184 -0.98,0.276 -1.515,0.276zm0.143 -1.319c0.63,0 1.167,-0.122 1.612,-0.365 0.445,-0.244 0.787,-0.576 1.025,-0.998 0.238,-0.422 0.356,-0.894 0.356,-1.417l0 -0.677 -3.065 0.57c-0.641,0.119 -1.084,0.3 -1.327,0.543 -0.244,0.244 -0.365,0.561 -0.365,0.953 0,0.439 0.157,0.781 0.472,1.025 0.315,0.244 0.745,0.365 1.292,0.365z"/>
  <path id="_7" fill="#141A26" fill-rule="nonzero" d="M83.529 19.279l0 -9.443 1.372 0 0.053 2.405 -0.178 -0.16c0.119,-0.558 0.327,-1.019 0.624,-1.381 0.297,-0.362 0.656,-0.633 1.078,-0.811 0.422,-0.178 0.876,-0.267 1.363,-0.267 0.725,0 1.321,0.16 1.791,0.481 0.469,0.321 0.82,0.751 1.051,1.292 0.232,0.54 0.347,1.143 0.347,1.808l0 6.076 -1.497 0 0 -5.648c0,-0.582 -0.068,-1.072 -0.205,-1.47 -0.137,-0.398 -0.353,-0.701 -0.65,-0.909 -0.297,-0.208 -0.683,-0.312 -1.158,-0.312 -0.725,0 -1.321,0.229 -1.791,0.686 -0.469,0.457 -0.704,1.125 -0.704,2.004l0 5.648 -1.497 0z"/>
  <rect fill="url(#id0)" y="0" width="23.449" height="23.449" rx="1.664" ry="1.664"/>
  <g id="_2310405499072">
   <path fill="white" d="M6.308 4.856l14.923 0c0.222,0 0.266,0.181 0.098,0.403l-2.416 3.186c-0.421,0.555 -1.218,1.008 -1.773,1.008l-14.843 0c-0.311,0 -0.372,-0.254 -0.137,-0.565l2.232 -2.944c0.454,-0.599 1.316,-1.089 1.915,-1.089z"/>
   <path fill="white" d="M14.975 14.746l-9.202 0c-0.102,0 -0.138,-0.084 -0.08,-0.186l1.565 -2.74c0.458,-0.803 1.49,-1.459 2.293,-1.459l8.839 0c0.102,0 0.138,0.084 0.08,0.186l-1.773 3.104c-0.344,0.603 -1.119,1.096 -1.722,1.096z"/>
   <path fill="white" d="M5.814 15.561l4.276 0 0 2.615c0,0.803 -0.657,1.459 -1.459,1.459l-2.817 0 0 -4.075z"/>
  </g>
 </g>
</svg>
