<?xml version="1.0" encoding="UTF-8"?>
<!DOCTYPE svg PUBLIC "-//W3C//DTD SVG 1.1//EN" "http://www.w3.org/Graphics/SVG/1.1/DTD/svg11.dtd">
<!-- Creator: CorelDRAW 2021.5 -->
<svg xmlns="http://www.w3.org/2000/svg" xml:space="preserve" width="11.3316in" height="2.19113in" version="1.1" shape-rendering="geometricPrecision" text-rendering="geometricPrecision" image-rendering="optimizeQuality" fill-rule="evenodd" clip-rule="evenodd"
viewBox="0 0 78.619 15.202"
 xmlns:xlink="http://www.w3.org/1999/xlink"
 xmlns:xodm="http://www.corel.com/coreldraw/odm/2003">
 <defs>
    <linearGradient id="id0" gradientUnits="userSpaceOnUse" x1="-11.02" y1="18.281" x2="75.671" y2="-1.189">
     <stop offset="0" stop-opacity="1" stop-color="#E7E5E3"/>
     <stop offset="1" stop-opacity="1" stop-color="#FAFAFA"/>
    </linearGradient>
    <linearGradient id="id1" gradientUnits="userSpaceOnUse" x1="-11.02" y1="18.281" x2="75.671" y2="-1.189">
     <stop offset="0" stop-opacity="1" stop-color="#E7E5E3"/>
     <stop offset="1" stop-opacity="1" stop-color="#FAFAFA"/>
    </linearGradient>
    <linearGradient id="id2" gradientUnits="userSpaceOnUse" x1="-11.02" y1="18.281" x2="75.671" y2="-1.189">
     <stop offset="0" stop-opacity="1" stop-color="#E7E5E3"/>
     <stop offset="1" stop-opacity="1" stop-color="#FAFAFA"/>
    </linearGradient>
    <linearGradient id="id3" gradientUnits="userSpaceOnUse" x1="-10.495" y1="17.827" x2="62.313" y2="-5.371">
     <stop offset="0" stop-opacity="1" stop-color="#E7E5E3"/>
     <stop offset="1" stop-opacity="1" stop-color="#FAFAFA"/>
    </linearGradient>
    <linearGradient id="id4" gradientUnits="userSpaceOnUse" x1="-10.495" y1="17.827" x2="62.313" y2="-5.371">
     <stop offset="0" stop-opacity="1" stop-color="#E7E5E3"/>
     <stop offset="1" stop-opacity="1" stop-color="#FAFAFA"/>
    </linearGradient>
    <linearGradient id="id5" gradientUnits="userSpaceOnUse" x1="-10.495" y1="17.827" x2="62.313" y2="-5.371">
     <stop offset="0" stop-opacity="1" stop-color="#E7E5E3"/>
     <stop offset="1" stop-opacity="1" stop-color="#FAFAFA"/>
    </linearGradient>
    <linearGradient id="id6" gradientUnits="userSpaceOnUse" x1="-10.495" y1="17.827" x2="62.313" y2="-5.371">
     <stop offset="0" stop-opacity="1" stop-color="#E7E5E3"/>
     <stop offset="1" stop-opacity="1" stop-color="#FAFAFA"/>
    </linearGradient>
    <linearGradient id="id7" gradientUnits="userSpaceOnUse" x1="-10.495" y1="17.827" x2="62.313" y2="-5.371">
     <stop offset="0" stop-opacity="1" stop-color="#E7E5E3"/>
     <stop offset="1" stop-opacity="1" stop-color="#FAFAFA"/>
    </linearGradient>
    <linearGradient id="id8" gradientUnits="userSpaceOnUse" x1="-10.495" y1="17.827" x2="62.313" y2="-5.371">
     <stop offset="0" stop-opacity="1" stop-color="#E7E5E3"/>
     <stop offset="1" stop-opacity="1" stop-color="#FAFAFA"/>
    </linearGradient>
    <linearGradient id="id9" gradientUnits="userSpaceOnUse" x1="-10.495" y1="17.827" x2="62.313" y2="-5.371">
     <stop offset="0" stop-opacity="1" stop-color="#E7E5E3"/>
     <stop offset="1" stop-opacity="1" stop-color="#FAFAFA"/>
    </linearGradient>
    <linearGradient id="id10" gradientUnits="userSpaceOnUse" x1="-10.495" y1="17.827" x2="62.313" y2="-5.371">
     <stop offset="0" stop-opacity="1" stop-color="#E7E5E3"/>
     <stop offset="1" stop-opacity="1" stop-color="#FAFAFA"/>
    </linearGradient>
 </defs>
 <g id="Layer_x0020_1">
  <metadata id="CorelCorpID_0Corel-Layer"/>
  <g id="_2310418702816">
   <path fill="url(#id0)" d="M4.413 0l15.349 0c0.228,0 0.273,0.187 0.1,0.415l-2.485 3.277c-0.432,0.57 -1.253,1.037 -1.823,1.037l-15.266 0c-0.319,0 -0.383,-0.261 -0.14,-0.581l2.296 -3.028c0.467,-0.616 1.353,-1.12 1.969,-1.12z"/>
   <path fill="url(#id1)" d="M13.327 10.173l-9.465 0c-0.105,0 -0.142,-0.086 -0.082,-0.191l1.61 -2.819c0.472,-0.826 1.533,-1.501 2.358,-1.501l9.092 0c0.105,0 0.142,0.086 0.082,0.191l-1.823 3.192c-0.354,0.62 -1.151,1.127 -1.771,1.127z"/>
   <path fill="url(#id2)" d="M3.905 11.011l4.398 0 0 2.69c0,0.826 -0.675,1.501 -1.501,1.501l-2.897 0 0 -4.191z"/>
   <polygon fill="url(#id3)" fill-rule="nonzero" points="24.301,13.988 24.301,3.761 20.482,3.761 20.482,2.402 29.657,2.402 29.657,3.761 25.838,3.761 25.838,13.988 "/>
   <path id="_1" fill="url(#id4)" fill-rule="nonzero" d="M34.005 11.269l1.472 0.194c-0.229,0.855 -0.658,1.521 -1.284,1.993 -0.626,0.472 -1.424,0.709 -2.398,0.709 -1.224,0 -2.195,-0.378 -2.913,-1.133 -0.717,-0.752 -1.076,-1.812 -1.076,-3.174 0,-1.408 0.361,-2.503 1.087,-3.279 0.725,-0.779 1.667,-1.168 2.824,-1.168 1.119,0 2.033,0.38 2.743,1.143 0.709,0.763 1.065,1.837 1.065,3.22 0,0.084 -0.003,0.21 -0.008,0.378l-6.254 0c0.054,0.92 0.313,1.626 0.782,2.114 0.467,0.488 1.052,0.734 1.75,0.734 0.52,0 0.965,-0.138 1.332,-0.413 0.369,-0.275 0.661,-0.715 0.876,-1.319zm-4.66 -2.282l4.676 0c-0.062,-0.707 -0.243,-1.235 -0.537,-1.588 -0.45,-0.547 -1.038,-0.823 -1.758,-0.823 -0.653,0 -1.2,0.218 -1.645,0.655 -0.442,0.437 -0.688,1.022 -0.736,1.756z"/>
   <path id="_2" fill="url(#id5)" fill-rule="nonzero" d="M41.771 10.913l1.392 0.194c-0.154,0.957 -0.542,1.704 -1.17,2.247 -0.628,0.542 -1.402,0.812 -2.317,0.812 -1.146,0 -2.068,-0.375 -2.764,-1.125 -0.699,-0.75 -1.046,-1.823 -1.046,-3.22 0,-0.906 0.151,-1.696 0.45,-2.376 0.299,-0.677 0.755,-1.187 1.37,-1.524 0.612,-0.34 1.278,-0.51 2.001,-0.51 0.909,0 1.656,0.229 2.233,0.69 0.58,0.461 0.952,1.117 1.114,1.963l-1.375 0.21c-0.132,-0.564 -0.364,-0.987 -0.701,-1.273 -0.334,-0.283 -0.739,-0.426 -1.214,-0.426 -0.717,0 -1.3,0.256 -1.75,0.769 -0.448,0.515 -0.672,1.324 -0.672,2.435 0,1.127 0.216,1.944 0.647,2.454 0.434,0.51 0.998,0.766 1.691,0.766 0.561,0 1.028,-0.17 1.4,-0.512 0.375,-0.34 0.612,-0.866 0.712,-1.575z"/>
   <path id="_3" fill="url(#id6)" fill-rule="nonzero" d="M43.385 13.988l0 -11.586 1.424 0 0 4.169c0.661,-0.774 1.494,-1.16 2.503,-1.16 0.618,0 1.154,0.121 1.613,0.367 0.456,0.245 0.782,0.583 0.979,1.014 0.197,0.431 0.294,1.06 0.294,1.88l0 5.316 -1.424 0 0 -5.31c0,-0.709 -0.154,-1.227 -0.458,-1.551 -0.307,-0.324 -0.739,-0.485 -1.3,-0.485 -0.418,0 -0.812,0.108 -1.181,0.326 -0.369,0.218 -0.631,0.515 -0.79,0.89 -0.156,0.372 -0.235,0.887 -0.235,1.545l0 4.585 -1.424 0z"/>
   <path id="_4" fill="url(#id7)" fill-rule="nonzero" d="M51.571 13.988l0 -11.586 4.374 0c0.769,0 1.357,0.038 1.764,0.111 0.569,0.094 1.046,0.275 1.432,0.539 0.386,0.267 0.696,0.639 0.93,1.117 0.235,0.477 0.351,1.003 0.351,1.578 0,0.982 -0.313,1.815 -0.941,2.495 -0.626,0.682 -1.761,1.022 -3.401,1.022l-2.972 0 0 4.725 -1.537 0zm1.537 -6.084l2.994 0c0.992,0 1.694,-0.183 2.112,-0.553 0.415,-0.369 0.623,-0.887 0.623,-1.559 0,-0.483 -0.121,-0.898 -0.367,-1.243 -0.245,-0.345 -0.569,-0.574 -0.968,-0.685 -0.259,-0.067 -0.736,-0.102 -1.429,-0.102l-2.964 0 0 4.142z"/>
   <polygon id="_5" fill="url(#id8)" fill-rule="nonzero" points="61.163,13.988 61.163,2.402 62.587,2.402 62.587,13.988 "/>
   <path id="_6" fill="url(#id9)" fill-rule="nonzero" d="M69.284 12.936c-0.529,0.45 -1.038,0.766 -1.526,0.952 -0.488,0.186 -1.011,0.278 -1.572,0.278 -0.922,0 -1.632,-0.224 -2.128,-0.674 -0.496,-0.448 -0.744,-1.022 -0.744,-1.721 0,-0.41 0.094,-0.785 0.28,-1.125 0.189,-0.34 0.434,-0.609 0.736,-0.814 0.305,-0.205 0.645,-0.361 1.025,-0.467 0.28,-0.073 0.704,-0.143 1.268,-0.213 1.149,-0.135 1.998,-0.299 2.54,-0.488 0.005,-0.194 0.008,-0.318 0.008,-0.369 0,-0.577 -0.135,-0.984 -0.405,-1.222 -0.364,-0.321 -0.906,-0.48 -1.624,-0.48 -0.672,0 -1.168,0.119 -1.486,0.353 -0.321,0.235 -0.556,0.65 -0.709,1.249l-1.392 -0.194c0.127,-0.596 0.334,-1.079 0.626,-1.446 0.291,-0.367 0.712,-0.647 1.262,-0.847 0.547,-0.197 1.187,-0.297 1.909,-0.297 0.717,0 1.303,0.084 1.753,0.254 0.448,0.17 0.779,0.38 0.99,0.636 0.21,0.256 0.359,0.58 0.445,0.971 0.046,0.243 0.07,0.68 0.07,1.308l0 1.888c0,1.319 0.03,2.152 0.089,2.505 0.057,0.353 0.175,0.69 0.348,1.014l-1.489 0c-0.143,-0.299 -0.235,-0.65 -0.275,-1.052zm-0.113 -3.155c-0.518,0.21 -1.294,0.388 -2.33,0.534 -0.588,0.084 -1.003,0.178 -1.246,0.283 -0.243,0.105 -0.429,0.259 -0.561,0.458 -0.132,0.202 -0.2,0.426 -0.2,0.674 0,0.375 0.143,0.69 0.431,0.941 0.289,0.251 0.709,0.378 1.262,0.378 0.547,0 1.036,-0.119 1.464,-0.359 0.426,-0.237 0.742,-0.564 0.941,-0.976 0.154,-0.321 0.229,-0.793 0.229,-1.416l0.008 -0.518z"/>
   <path id="_7" fill="url(#id10)" fill-rule="nonzero" d="M71.807 13.988l0 -8.398 1.278 0 0 1.192c0.615,-0.914 1.505,-1.37 2.667,-1.37 0.507,0 0.971,0.092 1.394,0.272 0.423,0.181 0.742,0.421 0.952,0.715 0.21,0.294 0.359,0.645 0.442,1.049 0.051,0.264 0.078,0.725 0.078,1.383l0 5.156 -1.424 0 0 -5.102c0,-0.58 -0.054,-1.014 -0.164,-1.3 -0.111,-0.286 -0.307,-0.515 -0.588,-0.688 -0.28,-0.17 -0.612,-0.256 -0.99,-0.256 -0.604,0 -1.125,0.191 -1.564,0.577 -0.44,0.383 -0.658,1.114 -0.658,2.187l0 4.582 -1.424 0z"/>
  </g>
 </g>
</svg>
