<svg width="58" height="70" viewBox="0 0 58 70" fill="none" xmlns="http://www.w3.org/2000/svg">
<path d="M4.75098 1.99646L33.0107 1.99646L55.2295 24.2152V64.3529C55.2295 66.6487 53.3689 68.5099 51.0732 68.5101H4.75098C2.45508 68.5101 0.59375 66.6488 0.59375 64.3529L0.59375 6.15369C0.59375 3.85779 2.45508 1.99646 4.75098 1.99646Z" fill="#F1F3F8" stroke="white" stroke-width="1.18774" stroke-linejoin="round"/>
<rect x="8.31592" y="48.918" width="24.9425" height="3.56322" rx="1.78161" fill="#C2D4E7"/>
<rect x="8.31299" y="57.2321" width="30.8812" height="3.56322" rx="1.78161" fill="#C2D4E7"/>
<g filter="url(#filter0_dddd_231_3754)">
<path d="M33.2593 21.5923V2.83449C33.2593 2.3054 33.899 2.04044 34.2731 2.41456L54.8125 22.954C55.1867 23.3281 54.9217 23.9678 54.3926 23.9678H35.6348C34.3228 23.9678 33.2593 22.9043 33.2593 21.5923Z" fill="url(#paint0_linear_231_3754)"/>
<path d="M33.2593 21.5923V2.83449C33.2593 2.3054 33.899 2.04044 34.2731 2.41456L54.8125 22.954C55.1867 23.3281 54.9217 23.9678 54.3926 23.9678H35.6348C34.3228 23.9678 33.2593 22.9043 33.2593 21.5923Z" fill="url(#paint1_linear_231_3754)"/>
<path d="M33.2593 21.5923V2.83449C33.2593 2.3054 33.899 2.04044 34.2731 2.41456L54.8125 22.954C55.1867 23.3281 54.9217 23.9678 54.3926 23.9678H35.6348C34.3228 23.9678 33.2593 22.9043 33.2593 21.5923Z" stroke="white" stroke-width="1.18774" stroke-linejoin="round"/>
</g>
<defs>
<filter id="filter0_dddd_231_3754" x="18.4127" y="0.456609" width="39.5453" height="40.7334" filterUnits="userSpaceOnUse" color-interpolation-filters="sRGB">
<feFlood flood-opacity="0" result="BackgroundImageFix"/>
<feColorMatrix in="SourceAlpha" type="matrix" values="0 0 0 0 0 0 0 0 0 0 0 0 0 0 0 0 0 0 127 0" result="hardAlpha"/>
<feOffset dy="1.18774"/>
<feGaussianBlur stdDeviation="1.18774"/>
<feColorMatrix type="matrix" values="0 0 0 0 0 0 0 0 0 0 0 0 0 0 0 0 0 0 0.1 0"/>
<feBlend mode="normal" in2="BackgroundImageFix" result="effect1_dropShadow_231_3754"/>
<feColorMatrix in="SourceAlpha" type="matrix" values="0 0 0 0 0 0 0 0 0 0 0 0 0 0 0 0 0 0 127 0" result="hardAlpha"/>
<feOffset dx="-2.37548" dy="2.37548"/>
<feGaussianBlur stdDeviation="1.78161"/>
<feColorMatrix type="matrix" values="0 0 0 0 0 0 0 0 0 0 0 0 0 0 0 0 0 0 0.09 0"/>
<feBlend mode="normal" in2="effect1_dropShadow_231_3754" result="effect2_dropShadow_231_3754"/>
<feColorMatrix in="SourceAlpha" type="matrix" values="0 0 0 0 0 0 0 0 0 0 0 0 0 0 0 0 0 0 127 0" result="hardAlpha"/>
<feOffset dx="-4.75096" dy="5.9387"/>
<feGaussianBlur stdDeviation="2.37548"/>
<feColorMatrix type="matrix" values="0 0 0 0 0 0 0 0 0 0 0 0 0 0 0 0 0 0 0.05 0"/>
<feBlend mode="normal" in2="effect2_dropShadow_231_3754" result="effect3_dropShadow_231_3754"/>
<feColorMatrix in="SourceAlpha" type="matrix" values="0 0 0 0 0 0 0 0 0 0 0 0 0 0 0 0 0 0 127 0" result="hardAlpha"/>
<feOffset dx="-8.31418" dy="10.6897"/>
<feGaussianBlur stdDeviation="2.96935"/>
<feColorMatrix type="matrix" values="0 0 0 0 0 0 0 0 0 0 0 0 0 0 0 0 0 0 0.01 0"/>
<feBlend mode="normal" in2="effect3_dropShadow_231_3754" result="effect4_dropShadow_231_3754"/>
<feBlend mode="normal" in="SourceGraphic" in2="effect4_dropShadow_231_3754" result="shape"/>
</filter>
<linearGradient id="paint0_linear_231_3754" x1="50.8791" y1="1.40076" x2="38.2065" y2="23.9678" gradientUnits="userSpaceOnUse">
<stop stop-color="#2C8330"/>
<stop offset="1" stop-color="#399D43"/>
</linearGradient>
<linearGradient id="paint1_linear_231_3754" x1="44.5428" y1="1.40076" x2="44.5428" y2="23.9678" gradientUnits="userSpaceOnUse">
<stop stop-color="#3B83F6"/>
<stop offset="1" stop-color="#39BCF9"/>
</linearGradient>
</defs>
</svg>
